<mxfile host="Electron" agent="Mozilla/5.0 (X11; Linux x86_64) AppleWebKit/537.36 (KHTML, like Gecko) draw.io/24.7.17 Chrome/128.0.6613.36 Electron/32.0.1 Safari/537.36" version="24.7.17">
  <diagram name="Page-1" id="gOjLsS9omcUWGXct_P6s">
    <mxGraphModel dx="2920" dy="1343" grid="1" gridSize="10" guides="1" tooltips="1" connect="1" arrows="1" fold="1" page="1" pageScale="1" pageWidth="850" pageHeight="1100" math="0" shadow="0">
      <root>
        <mxCell id="0" />
        <mxCell id="1" parent="0" />
        <mxCell id="bsGSJ6Nraj7wHXRKrdkg-154" value="Logical View: The Design Hierarchy&lt;div&gt;boxlambda_soc/&lt;/div&gt;" style="rounded=0;whiteSpace=wrap;html=1;verticalAlign=top;fontStyle=1;fontSize=18;" parent="1" vertex="1">
          <mxGeometry x="-390" y="520" width="940" height="970" as="geometry" />
        </mxCell>
        <mxCell id="bsGSJ6Nraj7wHXRKrdkg-153" value="&lt;font style=&quot;font-size: 18px;&quot;&gt;&lt;b&gt;Physical View: The Floorplan&lt;/b&gt;&lt;/font&gt;" style="rounded=0;whiteSpace=wrap;html=1;verticalAlign=top;" parent="1" vertex="1">
          <mxGeometry x="-390" y="20" width="940" height="430" as="geometry" />
        </mxCell>
        <mxCell id="bsGSJ6Nraj7wHXRKrdkg-3" value="&lt;b&gt;&lt;font style=&quot;font-size: 18px;&quot;&gt;Static Design&lt;/font&gt;&lt;/b&gt;" style="rounded=0;whiteSpace=wrap;html=1;fillColor=#dae8fc;strokeColor=#6c8ebf;verticalAlign=top;" parent="1" vertex="1">
          <mxGeometry x="-80.2" y="70" width="440" height="300" as="geometry" />
        </mxCell>
        <mxCell id="bsGSJ6Nraj7wHXRKrdkg-2" value="" style="rounded=0;whiteSpace=wrap;html=1;" parent="1" vertex="1">
          <mxGeometry x="14.800000000000011" y="160" width="240" height="160" as="geometry" />
        </mxCell>
        <mxCell id="bsGSJ6Nraj7wHXRKrdkg-1" value="&lt;b&gt;&lt;font style=&quot;font-size: 18px;&quot;&gt;Pblock vs0 - Reconfigurable Logic&lt;/font&gt;&lt;/b&gt;" style="rounded=0;whiteSpace=wrap;html=1;fillColor=#ffe6cc;strokeColor=#d79b00;" parent="1" vertex="1">
          <mxGeometry x="24.80000000000001" y="170" width="220" height="140" as="geometry" />
        </mxCell>
        <mxCell id="bsGSJ6Nraj7wHXRKrdkg-4" value="" style="rounded=0;whiteSpace=wrap;html=1;fillColor=#000000;" parent="1" vertex="1">
          <mxGeometry x="54.80000000000001" y="140" width="10" height="40" as="geometry" />
        </mxCell>
        <mxCell id="bsGSJ6Nraj7wHXRKrdkg-5" value="" style="rounded=0;whiteSpace=wrap;html=1;fillColor=#000000;" parent="1" vertex="1">
          <mxGeometry x="74.80000000000001" y="140" width="10" height="40" as="geometry" />
        </mxCell>
        <mxCell id="bsGSJ6Nraj7wHXRKrdkg-7" value="" style="rounded=0;whiteSpace=wrap;html=1;fillColor=#000000;" parent="1" vertex="1">
          <mxGeometry x="94.80000000000001" y="140" width="10" height="40" as="geometry" />
        </mxCell>
        <mxCell id="bsGSJ6Nraj7wHXRKrdkg-8" value="" style="rounded=0;whiteSpace=wrap;html=1;fillColor=#000000;" parent="1" vertex="1">
          <mxGeometry x="114.80000000000001" y="140" width="10" height="40" as="geometry" />
        </mxCell>
        <mxCell id="bsGSJ6Nraj7wHXRKrdkg-9" value="" style="rounded=0;whiteSpace=wrap;html=1;fillColor=#000000;" parent="1" vertex="1">
          <mxGeometry x="134.8" y="140" width="10" height="40" as="geometry" />
        </mxCell>
        <mxCell id="bsGSJ6Nraj7wHXRKrdkg-10" value="" style="rounded=0;whiteSpace=wrap;html=1;fillColor=#000000;" parent="1" vertex="1">
          <mxGeometry x="154.8" y="140" width="10" height="40" as="geometry" />
        </mxCell>
        <mxCell id="bsGSJ6Nraj7wHXRKrdkg-11" value="" style="rounded=0;whiteSpace=wrap;html=1;fillColor=#000000;" parent="1" vertex="1">
          <mxGeometry x="174.8" y="140" width="10" height="40" as="geometry" />
        </mxCell>
        <mxCell id="bsGSJ6Nraj7wHXRKrdkg-12" value="" style="rounded=0;whiteSpace=wrap;html=1;fillColor=#000000;" parent="1" vertex="1">
          <mxGeometry x="194.8" y="140" width="10" height="40" as="geometry" />
        </mxCell>
        <mxCell id="bsGSJ6Nraj7wHXRKrdkg-13" value="&lt;font style=&quot;font-size: 18px;&quot;&gt;Partition Pins&lt;/font&gt;" style="text;html=1;align=center;verticalAlign=middle;whiteSpace=wrap;rounded=0;fontStyle=1" parent="1" vertex="1">
          <mxGeometry x="44.80000000000001" y="110" width="180" height="30" as="geometry" />
        </mxCell>
        <mxCell id="bsGSJ6Nraj7wHXRKrdkg-14" value="wb_i2c" style="rounded=1;whiteSpace=wrap;html=1;fontSize=20;fillColor=#dae8fc;strokeWidth=1;fontStyle=0;strokeColor=#000000;" parent="1" vertex="1">
          <mxGeometry x="1" y="1340" width="120" height="60" as="geometry" />
        </mxCell>
        <mxCell id="bsGSJ6Nraj7wHXRKrdkg-15" value="Wishbone&lt;br&gt;Arbiter" style="rounded=0;whiteSpace=wrap;html=1;fontSize=20;fontStyle=1;fillColor=#dae8fc;strokeColor=#000000;strokeWidth=1;" parent="1" vertex="1">
          <mxGeometry y="820" width="250" height="80" as="geometry" />
        </mxCell>
        <mxCell id="bsGSJ6Nraj7wHXRKrdkg-17" value="&lt;font style=&quot;font-size: 20px;&quot;&gt;&lt;b&gt;Virtual Socket 0&lt;/b&gt;&lt;/font&gt;" style="rounded=1;whiteSpace=wrap;html=1;strokeColor=default;fillColor=#FFFF88;align=center;verticalAlign=bottom;strokeWidth=3;" parent="1" vertex="1">
          <mxGeometry x="-30" y="1160" width="180" height="120" as="geometry" />
        </mxCell>
        <mxCell id="bsGSJ6Nraj7wHXRKrdkg-19" value="" style="rounded=1;whiteSpace=wrap;html=1;fontSize=20;fillColor=#DAE8FC;" parent="1" vertex="1">
          <mxGeometry x="-371" y="770" width="170" height="90" as="geometry" />
        </mxCell>
        <mxCell id="bsGSJ6Nraj7wHXRKrdkg-20" value="" style="endArrow=classic;html=1;rounded=0;fontSize=20;" parent="1" source="bsGSJ6Nraj7wHXRKrdkg-21" target="bsGSJ6Nraj7wHXRKrdkg-115" edge="1">
          <mxGeometry width="50" height="50" relative="1" as="geometry">
            <mxPoint x="-280" y="820" as="sourcePoint" />
            <mxPoint x="-230" y="810" as="targetPoint" />
          </mxGeometry>
        </mxCell>
        <mxCell id="bsGSJ6Nraj7wHXRKrdkg-21" value="YM2149" style="rounded=1;whiteSpace=wrap;html=1;fontSize=20;fillColor=#DAE8FC;" parent="1" vertex="1">
          <mxGeometry x="-346" y="790" width="130" height="60" as="geometry" />
        </mxCell>
        <mxCell id="bsGSJ6Nraj7wHXRKrdkg-22" value="wb_dfx_controller" style="rounded=1;whiteSpace=wrap;html=1;fontSize=20;fillColor=#dae8fc;fontStyle=1;strokeWidth=1;strokeColor=#000000;" parent="1" vertex="1">
          <mxGeometry x="-0.1999999999999993" y="600" width="250.2" height="100" as="geometry" />
        </mxCell>
        <mxCell id="bsGSJ6Nraj7wHXRKrdkg-23" value="USB HID" style="rounded=1;whiteSpace=wrap;html=1;fontSize=20;fillColor=#dae8fc;strokeColor=#000000;strokeWidth=1;" parent="1" vertex="1">
          <mxGeometry x="-311" y="1170" width="111" height="50" as="geometry" />
        </mxCell>
        <mxCell id="bsGSJ6Nraj7wHXRKrdkg-24" value="" style="rounded=0;whiteSpace=wrap;html=1;fontSize=20;fillColor=#000000;strokeColor=#000000;" parent="1" vertex="1">
          <mxGeometry x="-211" y="1195" width="10" height="10" as="geometry" />
        </mxCell>
        <mxCell id="bsGSJ6Nraj7wHXRKrdkg-25" value="wbxbar Wishbone&lt;br&gt;Crossbar" style="rounded=0;whiteSpace=wrap;html=1;fontSize=20;fontStyle=0;fillColor=#dae8fc;strokeColor=#6c8ebf;strokeWidth=1;" parent="1" vertex="1">
          <mxGeometry x="-0.1999999999999993" y="1060" width="510.2" height="80" as="geometry" />
        </mxCell>
        <mxCell id="bsGSJ6Nraj7wHXRKrdkg-26" value="128K&lt;br&gt;DPRAM&lt;br&gt;CMEM" style="rounded=1;whiteSpace=wrap;html=1;fontSize=20;fillColor=#dae8fc;strokeWidth=2;strokeColor=#6c8ebf;" parent="1" vertex="1">
          <mxGeometry x="304.8" y="1180" width="120" height="100" as="geometry" />
        </mxCell>
        <mxCell id="bsGSJ6Nraj7wHXRKrdkg-27" value="128K&lt;br&gt;DPRAM&lt;br&gt;DMEM" style="rounded=1;whiteSpace=wrap;html=1;fontSize=20;fillColor=#dae8fc;strokeWidth=2;strokeColor=#6c8ebf;" parent="1" vertex="1">
          <mxGeometry x="393" y="1300" width="120" height="100" as="geometry" />
        </mxCell>
        <mxCell id="bsGSJ6Nraj7wHXRKrdkg-28" value="Ibex&lt;br style=&quot;font-size: 20px&quot;&gt;RV32IMCB&lt;br style=&quot;font-size: 20px&quot;&gt;" style="rounded=1;whiteSpace=wrap;html=1;fontSize=20;fillColor=#dae8fc;strokeColor=#6c8ebf;strokeWidth=1;fontStyle=1" parent="1" vertex="1">
          <mxGeometry x="-0.1999999999999993" y="940" width="120" height="80" as="geometry" />
        </mxCell>
        <mxCell id="bsGSJ6Nraj7wHXRKrdkg-29" value="riscv-dbg&lt;br style=&quot;font-size: 20px;&quot;&gt;JTAG DTM&lt;br style=&quot;font-size: 20px;&quot;&gt;" style="rounded=1;whiteSpace=wrap;html=1;fontSize=20;fillColor=#DAE8FC;strokeColor=default;" parent="1" vertex="1">
          <mxGeometry x="-0.1999999999999993" y="720" width="140.2" height="80" as="geometry" />
        </mxCell>
        <mxCell id="bsGSJ6Nraj7wHXRKrdkg-30" value="LiteDRAM MEMC" style="rounded=1;whiteSpace=wrap;html=1;fontSize=20;fillColor=#DAE8FC;strokeColor=default;" parent="1" vertex="1">
          <mxGeometry x="159.8" y="1180" width="120" height="80" as="geometry" />
        </mxCell>
        <mxCell id="bsGSJ6Nraj7wHXRKrdkg-31" value="PicoRV&lt;br&gt;DMA" style="rounded=1;whiteSpace=wrap;html=1;fontSize=20;fillColor=#dae8fc;strokeColor=#6c8ebf;strokeWidth=1;fontStyle=1" parent="1" vertex="1">
          <mxGeometry x="160" y="940" width="120" height="80" as="geometry" />
        </mxCell>
        <mxCell id="bsGSJ6Nraj7wHXRKrdkg-32" value="VERA Graphics&lt;br&gt;128KB VRAM&lt;br&gt;" style="rounded=1;whiteSpace=wrap;html=1;fontSize=20;fillColor=#dae8fc;strokeColor=#6c8ebf;fontStyle=1;strokeWidth=1;" parent="1" vertex="1">
          <mxGeometry x="304.8" y="890" width="120" height="120" as="geometry" />
        </mxCell>
        <mxCell id="bsGSJ6Nraj7wHXRKrdkg-33" value="vs0_stub /&lt;div&gt;vs0_j1b&lt;/div&gt;" style="rounded=1;whiteSpace=wrap;html=1;fontSize=20;strokeWidth=3;fontStyle=1;fillColor=#FFFF88;" parent="1" vertex="1">
          <mxGeometry x="-0.1999999999999993" y="1180" width="120" height="70" as="geometry" />
        </mxCell>
        <mxCell id="bsGSJ6Nraj7wHXRKrdkg-34" value="" style="rounded=0;whiteSpace=wrap;html=1;fontSize=20;fillColor=#000000;" parent="1" vertex="1">
          <mxGeometry x="35.8" y="1060" width="10" height="10" as="geometry" />
        </mxCell>
        <mxCell id="bsGSJ6Nraj7wHXRKrdkg-35" value="" style="endArrow=classic;html=1;rounded=0;fontSize=20;strokeWidth=1;" parent="1" source="bsGSJ6Nraj7wHXRKrdkg-40" edge="1">
          <mxGeometry width="50" height="50" relative="1" as="geometry">
            <mxPoint x="40.8" y="1030" as="sourcePoint" />
            <mxPoint x="40.8" y="1060" as="targetPoint" />
          </mxGeometry>
        </mxCell>
        <mxCell id="bsGSJ6Nraj7wHXRKrdkg-36" value="" style="endArrow=classic;html=1;rounded=0;fontSize=20;strokeWidth=1;" parent="1" source="bsGSJ6Nraj7wHXRKrdkg-41" target="bsGSJ6Nraj7wHXRKrdkg-37" edge="1">
          <mxGeometry width="50" height="50" relative="1" as="geometry">
            <mxPoint x="80.8" y="1030" as="sourcePoint" />
            <mxPoint x="-185.2" y="1095" as="targetPoint" />
          </mxGeometry>
        </mxCell>
        <mxCell id="bsGSJ6Nraj7wHXRKrdkg-37" value="" style="rounded=0;whiteSpace=wrap;html=1;fontSize=20;fillColor=#000000;" parent="1" vertex="1">
          <mxGeometry x="75.8" y="1060" width="10" height="10" as="geometry" />
        </mxCell>
        <mxCell id="bsGSJ6Nraj7wHXRKrdkg-38" value="" style="rounded=0;whiteSpace=wrap;html=1;fontSize=20;fillColor=#000000;" parent="1" vertex="1">
          <mxGeometry x="64.9" y="790" width="10" height="10" as="geometry" />
        </mxCell>
        <mxCell id="bsGSJ6Nraj7wHXRKrdkg-39" value="" style="endArrow=classic;html=1;rounded=0;fontSize=20;edgeStyle=orthogonalEdgeStyle;entryX=0.5;entryY=0;entryDx=0;entryDy=0;" parent="1" source="bsGSJ6Nraj7wHXRKrdkg-38" target="bsGSJ6Nraj7wHXRKrdkg-127" edge="1">
          <mxGeometry width="50" height="50" relative="1" as="geometry">
            <mxPoint x="-290.2" y="1180" as="sourcePoint" />
            <mxPoint x="-240.2" y="1130" as="targetPoint" />
          </mxGeometry>
        </mxCell>
        <mxCell id="bsGSJ6Nraj7wHXRKrdkg-40" value="" style="rounded=0;whiteSpace=wrap;html=1;fontSize=20;fillColor=#000000;" parent="1" vertex="1">
          <mxGeometry x="35.8" y="1010" width="10" height="10" as="geometry" />
        </mxCell>
        <mxCell id="bsGSJ6Nraj7wHXRKrdkg-41" value="" style="rounded=0;whiteSpace=wrap;html=1;fontSize=20;fillColor=#000000;" parent="1" vertex="1">
          <mxGeometry x="75.8" y="1010" width="10" height="10" as="geometry" />
        </mxCell>
        <mxCell id="bsGSJ6Nraj7wHXRKrdkg-42" value="" style="rounded=0;whiteSpace=wrap;html=1;fontSize=20;fillColor=#000000;" parent="1" vertex="1">
          <mxGeometry x="359.8" y="1060" width="10" height="10" as="geometry" />
        </mxCell>
        <mxCell id="bsGSJ6Nraj7wHXRKrdkg-43" value="" style="rounded=0;whiteSpace=wrap;html=1;fontSize=20;fillColor=#000000;" parent="1" vertex="1">
          <mxGeometry x="359.8" y="1000" width="10" height="10" as="geometry" />
        </mxCell>
        <mxCell id="bsGSJ6Nraj7wHXRKrdkg-44" value="" style="endArrow=classic;html=1;rounded=0;fontSize=20;" parent="1" source="bsGSJ6Nraj7wHXRKrdkg-42" target="bsGSJ6Nraj7wHXRKrdkg-43" edge="1">
          <mxGeometry width="50" height="50" relative="1" as="geometry">
            <mxPoint x="114.80000000000001" y="1270" as="sourcePoint" />
            <mxPoint x="164.8" y="1220" as="targetPoint" />
          </mxGeometry>
        </mxCell>
        <mxCell id="bsGSJ6Nraj7wHXRKrdkg-45" value="" style="rounded=0;whiteSpace=wrap;html=1;fontSize=20;fillColor=#000000;" parent="1" vertex="1">
          <mxGeometry x="214.99999999999994" y="1010" width="10" height="10" as="geometry" />
        </mxCell>
        <mxCell id="bsGSJ6Nraj7wHXRKrdkg-46" value="" style="rounded=0;whiteSpace=wrap;html=1;fontSize=20;fillColor=#000000;" parent="1" vertex="1">
          <mxGeometry x="214.79999999999995" y="1060" width="10" height="10" as="geometry" />
        </mxCell>
        <mxCell id="bsGSJ6Nraj7wHXRKrdkg-47" value="" style="endArrow=classic;html=1;rounded=0;fontSize=20;strokeWidth=1;" parent="1" source="bsGSJ6Nraj7wHXRKrdkg-45" target="bsGSJ6Nraj7wHXRKrdkg-46" edge="1">
          <mxGeometry width="50" height="50" relative="1" as="geometry">
            <mxPoint x="129.8" y="1170" as="sourcePoint" />
            <mxPoint x="179.8" y="1120" as="targetPoint" />
          </mxGeometry>
        </mxCell>
        <mxCell id="bsGSJ6Nraj7wHXRKrdkg-48" value="" style="rounded=0;whiteSpace=wrap;html=1;fontSize=20;fillColor=#000000;" parent="1" vertex="1">
          <mxGeometry x="35.8" y="1180" width="10" height="10" as="geometry" />
        </mxCell>
        <mxCell id="bsGSJ6Nraj7wHXRKrdkg-49" value="" style="rounded=0;whiteSpace=wrap;html=1;fontSize=20;fillColor=#000000;" parent="1" vertex="1">
          <mxGeometry x="35.8" y="1130" width="10" height="10" as="geometry" />
        </mxCell>
        <mxCell id="bsGSJ6Nraj7wHXRKrdkg-50" value="" style="endArrow=classic;html=1;rounded=0;fontSize=20;" parent="1" source="bsGSJ6Nraj7wHXRKrdkg-49" target="bsGSJ6Nraj7wHXRKrdkg-48" edge="1">
          <mxGeometry width="50" height="50" relative="1" as="geometry">
            <mxPoint x="139.8" y="1180" as="sourcePoint" />
            <mxPoint x="189.8" y="1130" as="targetPoint" />
          </mxGeometry>
        </mxCell>
        <mxCell id="bsGSJ6Nraj7wHXRKrdkg-51" value="" style="rounded=0;whiteSpace=wrap;html=1;fontSize=20;fillColor=#000000;" parent="1" vertex="1">
          <mxGeometry x="75.8" y="1130" width="10" height="10" as="geometry" />
        </mxCell>
        <mxCell id="bsGSJ6Nraj7wHXRKrdkg-52" value="" style="rounded=0;whiteSpace=wrap;html=1;fontSize=20;fillColor=#000000;" parent="1" vertex="1">
          <mxGeometry x="75.8" y="1180" width="10" height="10" as="geometry" />
        </mxCell>
        <mxCell id="bsGSJ6Nraj7wHXRKrdkg-53" value="" style="endArrow=classic;html=1;rounded=0;fontSize=20;" parent="1" source="bsGSJ6Nraj7wHXRKrdkg-52" target="bsGSJ6Nraj7wHXRKrdkg-51" edge="1">
          <mxGeometry width="50" height="50" relative="1" as="geometry">
            <mxPoint x="139.8" y="1180" as="sourcePoint" />
            <mxPoint x="189.8" y="1130" as="targetPoint" />
          </mxGeometry>
        </mxCell>
        <mxCell id="bsGSJ6Nraj7wHXRKrdkg-54" value="" style="rounded=0;whiteSpace=wrap;html=1;fontSize=20;fillColor=#000000;" parent="1" vertex="1">
          <mxGeometry x="214.8" y="1180" width="10" height="10" as="geometry" />
        </mxCell>
        <mxCell id="bsGSJ6Nraj7wHXRKrdkg-55" value="" style="rounded=0;whiteSpace=wrap;html=1;fontSize=20;fillColor=#000000;" parent="1" vertex="1">
          <mxGeometry x="214.8" y="1130" width="10" height="10" as="geometry" />
        </mxCell>
        <mxCell id="bsGSJ6Nraj7wHXRKrdkg-56" value="" style="endArrow=classic;html=1;rounded=0;fontSize=20;strokeWidth=1;" parent="1" source="bsGSJ6Nraj7wHXRKrdkg-55" target="bsGSJ6Nraj7wHXRKrdkg-54" edge="1">
          <mxGeometry width="50" height="50" relative="1" as="geometry">
            <mxPoint x="139.8" y="1180" as="sourcePoint" />
            <mxPoint x="189.8" y="1130" as="targetPoint" />
          </mxGeometry>
        </mxCell>
        <mxCell id="bsGSJ6Nraj7wHXRKrdkg-57" value="" style="rounded=0;whiteSpace=wrap;html=1;fontSize=20;fillColor=#000000;" parent="1" vertex="1">
          <mxGeometry x="336.8" y="1180" width="10" height="10" as="geometry" />
        </mxCell>
        <mxCell id="bsGSJ6Nraj7wHXRKrdkg-58" value="" style="rounded=0;whiteSpace=wrap;html=1;fontSize=20;fillColor=#000000;" parent="1" vertex="1">
          <mxGeometry x="336.8" y="1130" width="10" height="10" as="geometry" />
        </mxCell>
        <mxCell id="bsGSJ6Nraj7wHXRKrdkg-59" value="" style="endArrow=classic;html=1;rounded=0;fontSize=20;strokeWidth=1;" parent="1" source="bsGSJ6Nraj7wHXRKrdkg-58" target="bsGSJ6Nraj7wHXRKrdkg-57" edge="1">
          <mxGeometry width="50" height="50" relative="1" as="geometry">
            <mxPoint x="124.80000000000001" y="1180" as="sourcePoint" />
            <mxPoint x="174.8" y="1130" as="targetPoint" />
          </mxGeometry>
        </mxCell>
        <mxCell id="bsGSJ6Nraj7wHXRKrdkg-60" value="" style="rounded=0;whiteSpace=wrap;html=1;fontSize=20;fillColor=#000000;" parent="1" vertex="1">
          <mxGeometry x="377.8" y="1180" width="10" height="10" as="geometry" />
        </mxCell>
        <mxCell id="bsGSJ6Nraj7wHXRKrdkg-61" value="" style="rounded=0;whiteSpace=wrap;html=1;fontSize=20;fillColor=#000000;" parent="1" vertex="1">
          <mxGeometry x="377.8" y="1130" width="10" height="10" as="geometry" />
        </mxCell>
        <mxCell id="bsGSJ6Nraj7wHXRKrdkg-62" value="" style="endArrow=classic;html=1;rounded=0;fontSize=20;strokeWidth=1;" parent="1" source="bsGSJ6Nraj7wHXRKrdkg-61" target="bsGSJ6Nraj7wHXRKrdkg-60" edge="1">
          <mxGeometry width="50" height="50" relative="1" as="geometry">
            <mxPoint x="124.80000000000001" y="1180" as="sourcePoint" />
            <mxPoint x="174.8" y="1130" as="targetPoint" />
          </mxGeometry>
        </mxCell>
        <mxCell id="bsGSJ6Nraj7wHXRKrdkg-63" value="" style="rounded=0;whiteSpace=wrap;html=1;fontSize=20;fillColor=#000000;" parent="1" vertex="1">
          <mxGeometry x="434" y="1300" width="10" height="10" as="geometry" />
        </mxCell>
        <mxCell id="bsGSJ6Nraj7wHXRKrdkg-64" value="" style="rounded=0;whiteSpace=wrap;html=1;fontSize=20;fillColor=#000000;" parent="1" vertex="1">
          <mxGeometry x="434" y="1130" width="10" height="10" as="geometry" />
        </mxCell>
        <mxCell id="bsGSJ6Nraj7wHXRKrdkg-65" value="" style="endArrow=classic;html=1;rounded=0;fontSize=20;strokeWidth=1;" parent="1" source="bsGSJ6Nraj7wHXRKrdkg-64" target="bsGSJ6Nraj7wHXRKrdkg-63" edge="1">
          <mxGeometry width="50" height="50" relative="1" as="geometry">
            <mxPoint x="124.80000000000001" y="1180" as="sourcePoint" />
            <mxPoint x="174.8" y="1130" as="targetPoint" />
          </mxGeometry>
        </mxCell>
        <mxCell id="bsGSJ6Nraj7wHXRKrdkg-66" value="" style="rounded=0;whiteSpace=wrap;html=1;fontSize=20;fillColor=#000000;" parent="1" vertex="1">
          <mxGeometry x="469.9999999999999" y="1300" width="10" height="10" as="geometry" />
        </mxCell>
        <mxCell id="bsGSJ6Nraj7wHXRKrdkg-67" value="" style="rounded=0;whiteSpace=wrap;html=1;fontSize=20;fillColor=#000000;" parent="1" vertex="1">
          <mxGeometry x="469.9999999999999" y="1130" width="10" height="10" as="geometry" />
        </mxCell>
        <mxCell id="bsGSJ6Nraj7wHXRKrdkg-68" value="" style="endArrow=classic;html=1;rounded=0;fontSize=20;strokeWidth=1;" parent="1" source="bsGSJ6Nraj7wHXRKrdkg-67" target="bsGSJ6Nraj7wHXRKrdkg-66" edge="1">
          <mxGeometry width="50" height="50" relative="1" as="geometry">
            <mxPoint x="124.80000000000001" y="1180" as="sourcePoint" />
            <mxPoint x="174.8" y="1130" as="targetPoint" />
          </mxGeometry>
        </mxCell>
        <mxCell id="bsGSJ6Nraj7wHXRKrdkg-69" value="&lt;span&gt;wbxbar&lt;br&gt;Wishbone&lt;br&gt;Shared&lt;br&gt;Bus&lt;/span&gt;" style="rounded=0;whiteSpace=wrap;html=1;fontSize=20;fillColor=#dae8fc;strokeWidth=1;strokeColor=#6c8ebf;fontStyle=0" parent="1" vertex="1">
          <mxGeometry x="-160" y="600" width="120" height="860" as="geometry" />
        </mxCell>
        <mxCell id="bsGSJ6Nraj7wHXRKrdkg-70" value="" style="rounded=0;whiteSpace=wrap;html=1;fontSize=20;fillColor=#000000;" parent="1" vertex="1">
          <mxGeometry x="-50" y="1095" width="10" height="10" as="geometry" />
        </mxCell>
        <mxCell id="bsGSJ6Nraj7wHXRKrdkg-71" value="" style="rounded=0;whiteSpace=wrap;html=1;fontSize=20;fillColor=#000000;" parent="1" vertex="1">
          <mxGeometry x="-0.1999999999999993" y="1095" width="10" height="10" as="geometry" />
        </mxCell>
        <mxCell id="bsGSJ6Nraj7wHXRKrdkg-72" value="" style="endArrow=classic;html=1;rounded=0;fontSize=20;edgeStyle=orthogonalEdgeStyle;strokeWidth=1;" parent="1" source="bsGSJ6Nraj7wHXRKrdkg-71" target="bsGSJ6Nraj7wHXRKrdkg-70" edge="1">
          <mxGeometry width="50" height="50" relative="1" as="geometry">
            <mxPoint x="140" y="1300" as="sourcePoint" />
            <mxPoint x="190" y="1250" as="targetPoint" />
          </mxGeometry>
        </mxCell>
        <mxCell id="bsGSJ6Nraj7wHXRKrdkg-73" value="" style="rounded=0;whiteSpace=wrap;html=1;fontSize=20;fillColor=#000000;" parent="1" vertex="1">
          <mxGeometry x="1.0000000000000107" y="755" width="10" height="10" as="geometry" />
        </mxCell>
        <mxCell id="bsGSJ6Nraj7wHXRKrdkg-74" value="" style="rounded=0;whiteSpace=wrap;html=1;fontSize=20;fillColor=#000000;" parent="1" vertex="1">
          <mxGeometry x="-50" y="755" width="10" height="10" as="geometry" />
        </mxCell>
        <mxCell id="bsGSJ6Nraj7wHXRKrdkg-75" value="" style="endArrow=classic;html=1;rounded=0;fontSize=20;edgeStyle=orthogonalEdgeStyle;" parent="1" source="bsGSJ6Nraj7wHXRKrdkg-74" target="bsGSJ6Nraj7wHXRKrdkg-73" edge="1">
          <mxGeometry width="50" height="50" relative="1" as="geometry">
            <mxPoint x="140" y="1180" as="sourcePoint" />
            <mxPoint x="190" y="1130" as="targetPoint" />
          </mxGeometry>
        </mxCell>
        <mxCell id="bsGSJ6Nraj7wHXRKrdkg-76" value="" style="rounded=0;whiteSpace=wrap;html=1;fontSize=20;fillColor=#000000;" parent="1" vertex="1">
          <mxGeometry x="214.99999999999994" y="940" width="10" height="10" as="geometry" />
        </mxCell>
        <mxCell id="bsGSJ6Nraj7wHXRKrdkg-77" value="" style="rounded=0;whiteSpace=wrap;html=1;fontSize=20;fillColor=#000000;" parent="1" vertex="1">
          <mxGeometry x="-50" y="910" width="10" height="10" as="geometry" />
        </mxCell>
        <mxCell id="bsGSJ6Nraj7wHXRKrdkg-78" value="" style="rounded=0;whiteSpace=wrap;html=1;fontSize=20;fillColor=#000000;" parent="1" vertex="1">
          <mxGeometry x="214.8" y="1250" width="10" height="10" as="geometry" />
        </mxCell>
        <mxCell id="bsGSJ6Nraj7wHXRKrdkg-79" value="" style="rounded=0;whiteSpace=wrap;html=1;fontSize=20;fillColor=#000000;" parent="1" vertex="1">
          <mxGeometry x="-50" y="1290" width="10" height="10" as="geometry" />
        </mxCell>
        <mxCell id="bsGSJ6Nraj7wHXRKrdkg-80" value="" style="endArrow=classic;html=1;rounded=0;fontSize=20;edgeStyle=orthogonalEdgeStyle;" parent="1" source="bsGSJ6Nraj7wHXRKrdkg-79" target="bsGSJ6Nraj7wHXRKrdkg-78" edge="1">
          <mxGeometry width="50" height="50" relative="1" as="geometry">
            <mxPoint x="140" y="1300" as="sourcePoint" />
            <mxPoint x="190" y="1250" as="targetPoint" />
          </mxGeometry>
        </mxCell>
        <mxCell id="bsGSJ6Nraj7wHXRKrdkg-81" value="2 x YM2149/&lt;br&gt;JT49 Sound" style="rounded=1;whiteSpace=wrap;html=1;fontSize=20;fillColor=#DAE8FC;" parent="1" vertex="1">
          <mxGeometry x="-360" y="780" width="130" height="60" as="geometry" />
        </mxCell>
        <mxCell id="bsGSJ6Nraj7wHXRKrdkg-82" value="" style="rounded=0;whiteSpace=wrap;html=1;fontSize=20;fillColor=#000000;" parent="1" vertex="1">
          <mxGeometry x="-211" y="815" width="10" height="10" as="geometry" />
        </mxCell>
        <mxCell id="bsGSJ6Nraj7wHXRKrdkg-83" value="" style="rounded=0;whiteSpace=wrap;html=1;fontSize=20;fillColor=#000000;" parent="1" vertex="1">
          <mxGeometry x="-160" y="815" width="10" height="10" as="geometry" />
        </mxCell>
        <mxCell id="bsGSJ6Nraj7wHXRKrdkg-84" value="" style="endArrow=classic;html=1;rounded=0;fontSize=20;" parent="1" source="bsGSJ6Nraj7wHXRKrdkg-83" target="bsGSJ6Nraj7wHXRKrdkg-82" edge="1">
          <mxGeometry width="50" height="50" relative="1" as="geometry">
            <mxPoint x="140" y="1250" as="sourcePoint" />
            <mxPoint x="190" y="1200" as="targetPoint" />
          </mxGeometry>
        </mxCell>
        <mxCell id="bsGSJ6Nraj7wHXRKrdkg-85" value="sdspi" style="rounded=1;whiteSpace=wrap;html=1;fontSize=20;fillColor=#dae8fc;strokeColor=#6c8ebf;strokeWidth=1;fontStyle=1" parent="1" vertex="1">
          <mxGeometry x="-320.99995117187495" y="910" width="120" height="60" as="geometry" />
        </mxCell>
        <mxCell id="bsGSJ6Nraj7wHXRKrdkg-86" value="" style="rounded=0;whiteSpace=wrap;html=1;fontSize=20;fillColor=#000000;strokeColor=default;" parent="1" vertex="1">
          <mxGeometry x="-211" y="935" width="10" height="10" as="geometry" />
        </mxCell>
        <mxCell id="bsGSJ6Nraj7wHXRKrdkg-87" value="" style="rounded=0;whiteSpace=wrap;html=1;fontSize=20;fillColor=#000000;" parent="1" vertex="1">
          <mxGeometry x="-160" y="935" width="10" height="10" as="geometry" />
        </mxCell>
        <mxCell id="bsGSJ6Nraj7wHXRKrdkg-88" value="" style="endArrow=classic;html=1;rounded=0;fontSize=20;" parent="1" source="bsGSJ6Nraj7wHXRKrdkg-87" target="bsGSJ6Nraj7wHXRKrdkg-86" edge="1">
          <mxGeometry width="50" height="50" relative="1" as="geometry">
            <mxPoint x="140" y="1270" as="sourcePoint" />
            <mxPoint x="190" y="1220" as="targetPoint" />
          </mxGeometry>
        </mxCell>
        <mxCell id="bsGSJ6Nraj7wHXRKrdkg-89" value="wbuart32" style="rounded=1;whiteSpace=wrap;html=1;fontSize=20;fillColor=#dae8fc;strokeColor=#6c8ebf;strokeWidth=1;fontStyle=1" parent="1" vertex="1">
          <mxGeometry x="-320.99995117187495" y="990" width="120" height="60" as="geometry" />
        </mxCell>
        <mxCell id="bsGSJ6Nraj7wHXRKrdkg-90" value="" style="rounded=0;whiteSpace=wrap;html=1;fontSize=20;fillColor=#000000;" parent="1" vertex="1">
          <mxGeometry x="-211" y="1015" width="10" height="10" as="geometry" />
        </mxCell>
        <mxCell id="bsGSJ6Nraj7wHXRKrdkg-91" value="" style="rounded=0;whiteSpace=wrap;html=1;fontSize=20;fillColor=#000000;" parent="1" vertex="1">
          <mxGeometry x="-160" y="1015" width="10" height="10" as="geometry" />
        </mxCell>
        <mxCell id="bsGSJ6Nraj7wHXRKrdkg-92" value="" style="endArrow=classic;html=1;rounded=0;fontSize=20;" parent="1" source="bsGSJ6Nraj7wHXRKrdkg-91" target="bsGSJ6Nraj7wHXRKrdkg-90" edge="1">
          <mxGeometry width="50" height="50" relative="1" as="geometry">
            <mxPoint x="140" y="1270" as="sourcePoint" />
            <mxPoint x="190" y="1220" as="targetPoint" />
          </mxGeometry>
        </mxCell>
        <mxCell id="bsGSJ6Nraj7wHXRKrdkg-93" value="USB HID" style="rounded=1;whiteSpace=wrap;html=1;fontSize=20;fillColor=#dae8fc;strokeColor=#6c8ebf;strokeWidth=1;fontStyle=1" parent="1" vertex="1">
          <mxGeometry x="-321" y="1160" width="111" height="50" as="geometry" />
        </mxCell>
        <mxCell id="bsGSJ6Nraj7wHXRKrdkg-94" value="&lt;font style=&quot;font-size: 20px;&quot;&gt;wb_timer&lt;br style=&quot;font-size: 20px;&quot;&gt;&lt;/font&gt;" style="rounded=1;whiteSpace=wrap;html=1;fillColor=#dae8fc;strokeColor=#6c8ebf;strokeWidth=1;fontStyle=1;fontSize=20;" parent="1" vertex="1">
          <mxGeometry x="-320" y="1240" width="119" height="60" as="geometry" />
        </mxCell>
        <mxCell id="bsGSJ6Nraj7wHXRKrdkg-95" value="SPI Flash" style="rounded=1;whiteSpace=wrap;html=1;fontSize=20;align=center;fillColor=#dae8fc;strokeWidth=1;fontStyle=1;strokeColor=#6c8ebf;" parent="1" vertex="1">
          <mxGeometry x="-320" y="1320" width="120" height="60" as="geometry" />
        </mxCell>
        <mxCell id="bsGSJ6Nraj7wHXRKrdkg-96" value="" style="endArrow=classic;html=1;rounded=0;fontSize=20;" parent="1" source="bsGSJ6Nraj7wHXRKrdkg-98" target="bsGSJ6Nraj7wHXRKrdkg-97" edge="1">
          <mxGeometry width="50" height="50" relative="1" as="geometry">
            <mxPoint x="-375" y="1240" as="sourcePoint" />
            <mxPoint x="-350" y="1190" as="targetPoint" />
          </mxGeometry>
        </mxCell>
        <mxCell id="bsGSJ6Nraj7wHXRKrdkg-97" value="" style="rounded=0;whiteSpace=wrap;html=1;fontSize=20;fillColor=#000000;strokeColor=#000000;" parent="1" vertex="1">
          <mxGeometry x="-221" y="1180" width="10" height="10" as="geometry" />
        </mxCell>
        <mxCell id="bsGSJ6Nraj7wHXRKrdkg-98" value="" style="rounded=0;whiteSpace=wrap;html=1;fontSize=20;strokeColor=#000000;fillColor=#000000;" parent="1" vertex="1">
          <mxGeometry x="-160" y="1180" width="10" height="10" as="geometry" />
        </mxCell>
        <mxCell id="bsGSJ6Nraj7wHXRKrdkg-99" value="" style="endArrow=classic;html=1;rounded=0;fontSize=20;" parent="1" source="bsGSJ6Nraj7wHXRKrdkg-100" target="bsGSJ6Nraj7wHXRKrdkg-24" edge="1">
          <mxGeometry width="50" height="50" relative="1" as="geometry">
            <mxPoint x="-375" y="1240" as="sourcePoint" />
            <mxPoint x="-350" y="1190" as="targetPoint" />
          </mxGeometry>
        </mxCell>
        <mxCell id="bsGSJ6Nraj7wHXRKrdkg-100" value="" style="rounded=0;whiteSpace=wrap;html=1;fontSize=20;strokeColor=#000000;fillColor=#000000;" parent="1" vertex="1">
          <mxGeometry x="-160" y="1195" width="10" height="10" as="geometry" />
        </mxCell>
        <mxCell id="bsGSJ6Nraj7wHXRKrdkg-101" value="" style="endArrow=classic;html=1;rounded=0;fontSize=20;" parent="1" source="bsGSJ6Nraj7wHXRKrdkg-103" target="bsGSJ6Nraj7wHXRKrdkg-102" edge="1">
          <mxGeometry width="50" height="50" relative="1" as="geometry">
            <mxPoint x="-375" y="1240" as="sourcePoint" />
            <mxPoint x="-350" y="1190" as="targetPoint" />
          </mxGeometry>
        </mxCell>
        <mxCell id="bsGSJ6Nraj7wHXRKrdkg-102" value="" style="rounded=0;whiteSpace=wrap;html=1;fontSize=20;fillColor=#000000;strokeColor=#000000;" parent="1" vertex="1">
          <mxGeometry x="-210" y="1265" width="10" height="10" as="geometry" />
        </mxCell>
        <mxCell id="bsGSJ6Nraj7wHXRKrdkg-103" value="" style="rounded=0;whiteSpace=wrap;html=1;fontSize=20;strokeColor=#000000;fillColor=#000000;" parent="1" vertex="1">
          <mxGeometry x="-160" y="1265" width="10" height="10" as="geometry" />
        </mxCell>
        <mxCell id="bsGSJ6Nraj7wHXRKrdkg-104" value="" style="endArrow=classic;html=1;rounded=0;fontSize=20;" parent="1" source="bsGSJ6Nraj7wHXRKrdkg-106" target="bsGSJ6Nraj7wHXRKrdkg-105" edge="1">
          <mxGeometry width="50" height="50" relative="1" as="geometry">
            <mxPoint x="-375" y="1240" as="sourcePoint" />
            <mxPoint x="-350" y="1190" as="targetPoint" />
          </mxGeometry>
        </mxCell>
        <mxCell id="bsGSJ6Nraj7wHXRKrdkg-105" value="" style="rounded=0;whiteSpace=wrap;html=1;fontSize=20;fillColor=#000000;strokeColor=#000000;" parent="1" vertex="1">
          <mxGeometry x="-210" y="1345" width="10" height="10" as="geometry" />
        </mxCell>
        <mxCell id="bsGSJ6Nraj7wHXRKrdkg-106" value="" style="rounded=0;whiteSpace=wrap;html=1;fontSize=20;strokeColor=#000000;fillColor=#000000;" parent="1" vertex="1">
          <mxGeometry x="-160" y="1345" width="10" height="10" as="geometry" />
        </mxCell>
        <mxCell id="bsGSJ6Nraj7wHXRKrdkg-107" value="" style="endArrow=classic;html=1;rounded=0;fontSize=20;edgeStyle=orthogonalEdgeStyle;" parent="1" source="bsGSJ6Nraj7wHXRKrdkg-109" target="bsGSJ6Nraj7wHXRKrdkg-108" edge="1">
          <mxGeometry width="50" height="50" relative="1" as="geometry">
            <mxPoint x="-375" y="440" as="sourcePoint" />
            <mxPoint x="-350" y="390" as="targetPoint" />
          </mxGeometry>
        </mxCell>
        <mxCell id="bsGSJ6Nraj7wHXRKrdkg-108" value="" style="rounded=0;whiteSpace=wrap;html=1;fontSize=20;fillColor=#000000;strokeColor=#000000;" parent="1" vertex="1">
          <mxGeometry x="159.8" y="820" width="10" height="10" as="geometry" />
        </mxCell>
        <mxCell id="bsGSJ6Nraj7wHXRKrdkg-109" value="" style="rounded=0;whiteSpace=wrap;html=1;fontSize=20;strokeColor=#000000;fillColor=#000000;" parent="1" vertex="1">
          <mxGeometry x="159.8" y="690" width="10" height="10" as="geometry" />
        </mxCell>
        <mxCell id="bsGSJ6Nraj7wHXRKrdkg-110" value="" style="endArrow=classic;html=1;rounded=0;fontSize=20;" parent="1" source="bsGSJ6Nraj7wHXRKrdkg-112" target="bsGSJ6Nraj7wHXRKrdkg-111" edge="1">
          <mxGeometry width="50" height="50" relative="1" as="geometry">
            <mxPoint x="-375" y="460" as="sourcePoint" />
            <mxPoint x="-350" y="410" as="targetPoint" />
          </mxGeometry>
        </mxCell>
        <mxCell id="bsGSJ6Nraj7wHXRKrdkg-111" value="" style="rounded=0;whiteSpace=wrap;html=1;fontSize=20;fillColor=#000000;strokeColor=#000000;" parent="1" vertex="1">
          <mxGeometry x="-0.1999999999999993" y="645" width="10" height="10" as="geometry" />
        </mxCell>
        <mxCell id="bsGSJ6Nraj7wHXRKrdkg-112" value="" style="rounded=0;whiteSpace=wrap;html=1;fontSize=20;strokeColor=#000000;fillColor=#000000;" parent="1" vertex="1">
          <mxGeometry x="-50" y="645" width="10" height="10" as="geometry" />
        </mxCell>
        <mxCell id="bsGSJ6Nraj7wHXRKrdkg-115" value="Audio DAC" style="rounded=1;whiteSpace=wrap;html=1;fontColor=#000000;strokeColor=#000000;strokeWidth=1;fillColor=#DAE8FC;fontSize=20;" parent="1" vertex="1">
          <mxGeometry x="-321" y="670" width="80" height="60" as="geometry" />
        </mxCell>
        <mxCell id="bsGSJ6Nraj7wHXRKrdkg-116" value="" style="endArrow=classic;html=1;rounded=0;fontSize=20;" parent="1" source="bsGSJ6Nraj7wHXRKrdkg-81" edge="1">
          <mxGeometry width="50" height="50" relative="1" as="geometry">
            <mxPoint x="-280" y="860" as="sourcePoint" />
            <mxPoint x="-295" y="730" as="targetPoint" />
          </mxGeometry>
        </mxCell>
        <mxCell id="bsGSJ6Nraj7wHXRKrdkg-121" value="" style="endArrow=classic;html=1;rounded=0;fontSize=20;strokeWidth=3;" parent="1" source="bsGSJ6Nraj7wHXRKrdkg-123" target="bsGSJ6Nraj7wHXRKrdkg-122" edge="1">
          <mxGeometry width="50" height="50" relative="1" as="geometry">
            <mxPoint x="-375" y="1245" as="sourcePoint" />
            <mxPoint x="-350" y="1195" as="targetPoint" />
          </mxGeometry>
        </mxCell>
        <mxCell id="bsGSJ6Nraj7wHXRKrdkg-122" value="" style="rounded=0;whiteSpace=wrap;html=1;fontSize=20;fillColor=#000000;strokeColor=#000000;" parent="1" vertex="1">
          <mxGeometry x="-0.1999999999999993" y="1365" width="10" height="10" as="geometry" />
        </mxCell>
        <mxCell id="bsGSJ6Nraj7wHXRKrdkg-123" value="" style="rounded=0;whiteSpace=wrap;html=1;fontSize=20;strokeColor=#000000;fillColor=#000000;" parent="1" vertex="1">
          <mxGeometry x="-50" y="1365" width="10" height="10" as="geometry" />
        </mxCell>
        <mxCell id="bsGSJ6Nraj7wHXRKrdkg-127" value="" style="rounded=0;whiteSpace=wrap;html=1;fontSize=20;fillColor=#000000;" parent="1" vertex="1">
          <mxGeometry x="64.9" y="820" width="10" height="10" as="geometry" />
        </mxCell>
        <mxCell id="bsGSJ6Nraj7wHXRKrdkg-128" value="" style="endArrow=classic;html=1;rounded=0;fontSize=20;" parent="1" source="bsGSJ6Nraj7wHXRKrdkg-130" target="bsGSJ6Nraj7wHXRKrdkg-129" edge="1">
          <mxGeometry width="50" height="50" relative="1" as="geometry">
            <mxPoint x="90.8" y="1040" as="sourcePoint" />
            <mxPoint x="-175.2" y="1105" as="targetPoint" />
          </mxGeometry>
        </mxCell>
        <mxCell id="bsGSJ6Nraj7wHXRKrdkg-129" value="" style="rounded=0;whiteSpace=wrap;html=1;fontSize=20;fillColor=#000000;" parent="1" vertex="1">
          <mxGeometry x="130" y="1060" width="10" height="10" as="geometry" />
        </mxCell>
        <mxCell id="bsGSJ6Nraj7wHXRKrdkg-130" value="" style="rounded=0;whiteSpace=wrap;html=1;fontSize=20;fillColor=#000000;" parent="1" vertex="1">
          <mxGeometry x="130" y="890" width="10" height="10" as="geometry" />
        </mxCell>
        <mxCell id="bsGSJ6Nraj7wHXRKrdkg-131" value="" style="endArrow=classic;html=1;rounded=0;fontSize=20;strokeColor=default;jumpStyle=arc;exitX=1;exitY=0.5;exitDx=0;exitDy=0;entryX=0.5;entryY=0;entryDx=0;entryDy=0;edgeStyle=orthogonalEdgeStyle;jumpSize=11;" parent="1" source="bsGSJ6Nraj7wHXRKrdkg-77" target="bsGSJ6Nraj7wHXRKrdkg-76" edge="1">
          <mxGeometry width="50" height="50" relative="1" as="geometry">
            <mxPoint x="220" y="890" as="sourcePoint" />
            <mxPoint x="270" y="840" as="targetPoint" />
          </mxGeometry>
        </mxCell>
        <mxCell id="bsGSJ6Nraj7wHXRKrdkg-133" value="wb_gpio" style="rounded=1;whiteSpace=wrap;html=1;fontSize=20;fillColor=#dae8fc;strokeColor=#6c8ebf;strokeWidth=1;fontStyle=1" parent="1" vertex="1">
          <mxGeometry x="-321" y="1080" width="120" height="60" as="geometry" />
        </mxCell>
        <mxCell id="bsGSJ6Nraj7wHXRKrdkg-134" value="" style="rounded=0;whiteSpace=wrap;html=1;fontSize=20;fillColor=#000000;" parent="1" vertex="1">
          <mxGeometry x="-211" y="1105" width="10" height="10" as="geometry" />
        </mxCell>
        <mxCell id="bsGSJ6Nraj7wHXRKrdkg-135" value="" style="rounded=0;whiteSpace=wrap;html=1;fontSize=20;fillColor=#000000;" parent="1" vertex="1">
          <mxGeometry x="-160" y="1105" width="10" height="10" as="geometry" />
        </mxCell>
        <mxCell id="bsGSJ6Nraj7wHXRKrdkg-136" value="" style="endArrow=classic;html=1;rounded=0;fontSize=20;" parent="1" source="bsGSJ6Nraj7wHXRKrdkg-135" target="bsGSJ6Nraj7wHXRKrdkg-134" edge="1">
          <mxGeometry width="50" height="50" relative="1" as="geometry">
            <mxPoint x="150" y="1310" as="sourcePoint" />
            <mxPoint x="200" y="1260" as="targetPoint" />
          </mxGeometry>
        </mxCell>
        <mxCell id="bsGSJ6Nraj7wHXRKrdkg-139" value="reset_ctrl" style="rounded=1;whiteSpace=wrap;html=1;fillColor=#dae8fc;strokeColor=#6c8ebf;strokeWidth=1;fontStyle=1;fontSize=20;" parent="1" vertex="1">
          <mxGeometry x="-320" y="1400" width="119" height="60" as="geometry" />
        </mxCell>
        <mxCell id="bsGSJ6Nraj7wHXRKrdkg-140" value="" style="endArrow=classic;html=1;rounded=0;fontSize=20;" parent="1" source="bsGSJ6Nraj7wHXRKrdkg-142" target="bsGSJ6Nraj7wHXRKrdkg-141" edge="1">
          <mxGeometry width="50" height="50" relative="1" as="geometry">
            <mxPoint x="-375" y="1400" as="sourcePoint" />
            <mxPoint x="-350" y="1350" as="targetPoint" />
          </mxGeometry>
        </mxCell>
        <mxCell id="bsGSJ6Nraj7wHXRKrdkg-141" value="" style="rounded=0;whiteSpace=wrap;html=1;fontSize=20;fillColor=#000000;strokeColor=#000000;" parent="1" vertex="1">
          <mxGeometry x="-210" y="1425" width="10" height="10" as="geometry" />
        </mxCell>
        <mxCell id="bsGSJ6Nraj7wHXRKrdkg-142" value="" style="rounded=0;whiteSpace=wrap;html=1;fontSize=20;strokeColor=#000000;fillColor=#000000;" parent="1" vertex="1">
          <mxGeometry x="-160" y="1425" width="10" height="10" as="geometry" />
        </mxCell>
        <mxCell id="bsGSJ6Nraj7wHXRKrdkg-143" value="&lt;font style=&quot;font-size: 18px;&quot;&gt;&lt;b&gt;Reconfigurable Partition / Virtual Socket: boxlambda_soc/vs0_inst&lt;/b&gt;&lt;/font&gt;" style="text;html=1;align=center;verticalAlign=middle;whiteSpace=wrap;rounded=0;" parent="1" vertex="1">
          <mxGeometry x="-475.5" y="470" width="440" height="30" as="geometry" />
        </mxCell>
        <mxCell id="bsGSJ6Nraj7wHXRKrdkg-144" value="" style="endArrow=classic;html=1;rounded=0;strokeWidth=5;dashed=1;" parent="1" edge="1">
          <mxGeometry width="50" height="50" relative="1" as="geometry">
            <mxPoint x="-240" y="510" as="sourcePoint" />
            <mxPoint x="-10" y="1150" as="targetPoint" />
          </mxGeometry>
        </mxCell>
        <mxCell id="bsGSJ6Nraj7wHXRKrdkg-147" value="&lt;font style=&quot;font-size: 18px;&quot;&gt;&lt;b&gt;Reconfigurable Module vs0_j1b or vs0_stub&lt;/b&gt;&lt;/font&gt;" style="text;html=1;align=center;verticalAlign=middle;whiteSpace=wrap;rounded=0;" parent="1" vertex="1">
          <mxGeometry x="124.80000000000001" y="1450" width="440" height="30" as="geometry" />
        </mxCell>
        <mxCell id="bsGSJ6Nraj7wHXRKrdkg-148" value="" style="endArrow=classic;html=1;rounded=0;strokeWidth=5;dashed=1;entryX=0.835;entryY=0.857;entryDx=0;entryDy=0;entryPerimeter=0;" parent="1" source="bsGSJ6Nraj7wHXRKrdkg-147" target="bsGSJ6Nraj7wHXRKrdkg-33" edge="1">
          <mxGeometry width="50" height="50" relative="1" as="geometry">
            <mxPoint x="-200" y="460" as="sourcePoint" />
            <mxPoint x="100" y="1260" as="targetPoint" />
          </mxGeometry>
        </mxCell>
        <mxCell id="h9_NE-g4Cd41XbNf0T0K-1" value="(X&amp;lt;x1&amp;gt;,Y&amp;lt;y1&amp;gt;)" style="text;html=1;align=center;verticalAlign=middle;whiteSpace=wrap;rounded=0;fontSize=18;fontStyle=1" parent="1" vertex="1">
          <mxGeometry x="-160" y="150" width="60" height="30" as="geometry" />
        </mxCell>
        <mxCell id="h9_NE-g4Cd41XbNf0T0K-2" value="(X&amp;lt;x2&amp;gt;,Y&amp;lt;y2&amp;gt;)" style="text;html=1;align=center;verticalAlign=middle;whiteSpace=wrap;rounded=0;fontSize=18;fontStyle=1" parent="1" vertex="1">
          <mxGeometry x="409" y="370" width="60" height="30" as="geometry" />
        </mxCell>
        <mxCell id="h9_NE-g4Cd41XbNf0T0K-12" value="" style="endArrow=classic;html=1;rounded=0;exitX=0.345;exitY=0.34;exitDx=0;exitDy=0;exitPerimeter=0;entryX=0;entryY=0;entryDx=0;entryDy=0;" parent="1" source="bsGSJ6Nraj7wHXRKrdkg-153" target="bsGSJ6Nraj7wHXRKrdkg-2" edge="1">
          <mxGeometry width="50" height="50" relative="1" as="geometry">
            <mxPoint x="-650" y="220" as="sourcePoint" />
            <mxPoint x="-580" y="170" as="targetPoint" />
          </mxGeometry>
        </mxCell>
        <mxCell id="h9_NE-g4Cd41XbNf0T0K-13" value="" style="endArrow=classic;html=1;rounded=0;entryX=1;entryY=1;entryDx=0;entryDy=0;exitX=0.818;exitY=0.83;exitDx=0;exitDy=0;exitPerimeter=0;" parent="1" source="bsGSJ6Nraj7wHXRKrdkg-153" target="bsGSJ6Nraj7wHXRKrdkg-2" edge="1">
          <mxGeometry width="50" height="50" relative="1" as="geometry">
            <mxPoint x="380" y="510" as="sourcePoint" />
            <mxPoint x="430" y="460" as="targetPoint" />
          </mxGeometry>
        </mxCell>
        <mxCell id="h9_NE-g4Cd41XbNf0T0K-14" value="&lt;b&gt;&lt;font style=&quot;font-size: 18px;&quot;&gt;associated with&lt;/font&gt;&lt;/b&gt;" style="endArrow=classic;html=1;rounded=0;exitX=0.205;exitY=0.714;exitDx=0;exitDy=0;exitPerimeter=0;strokeWidth=5;dashed=1;" parent="1" source="bsGSJ6Nraj7wHXRKrdkg-1" edge="1">
          <mxGeometry x="0.3297" y="-7" width="50" height="50" relative="1" as="geometry">
            <mxPoint x="-700" y="450" as="sourcePoint" />
            <mxPoint x="-240" y="460" as="targetPoint" />
            <mxPoint x="-1" as="offset" />
          </mxGeometry>
        </mxCell>
        <mxCell id="GEfzbOCz5t88JhNojcm0-1" value="" style="rounded=0;whiteSpace=wrap;html=1;fillColor=none;strokeColor=none;" vertex="1" parent="1">
          <mxGeometry x="-560" y="645" width="1280" height="60" as="geometry" />
        </mxCell>
      </root>
    </mxGraphModel>
  </diagram>
</mxfile>
